<svg width="256" height="256" viewBox="0 0 256 256" fill="none" xmlns="http://www.w3.org/2000/svg">
<rect width="256" height="256" rx="128" fill="white"/>
<path d="M50.1616 50.959L79.5698 46.291V110.242L75.9521 167.191C81.9427 169.525 90.0339 171.393 100.226 172.793C110.417 174.116 116.563 174.932 118.664 175.244L112.012 201.151C103.688 200.062 96.958 199.05 91.8232 198.117L78.1694 195.549C64.0877 192.826 54.7518 190.376 50.1616 188.197V50.959ZM222.293 73.7153C213.19 74.1043 202.104 74.8045 189.034 75.8159L190.084 124.363L187.4 198L161.376 200.101L159.976 76.8662C153.207 77.0218 146.944 77.2552 141.187 77.5664C135.508 77.8776 130.684 78.0332 126.716 78.0332L128.817 52.7095C155.736 49.2085 185.883 47.458 219.259 47.458L222.293 73.7153Z" fill="black"/>
</svg>
